<svg preserveAspectRatio="none" width="100%" height="100%" overflow="visible" style="display: block;" viewBox="0 0 7 13" fill="none" xmlns="http://www.w3.org/2000/svg">
<path id="Vector" d="M6.82891 6.82891L0.996251 12.6616C0.942059 12.7158 0.877725 12.7587 0.80692 12.7881C0.736116 12.8174 0.660228 12.8325 0.58359 12.8325C0.506952 12.8325 0.431064 12.8174 0.36026 12.7881C0.289455 12.7587 0.225121 12.7158 0.170929 12.6616C0.116738 12.6074 0.073751 12.543 0.0444229 12.4722C0.0150947 12.4014 0 12.3255 0 12.2489C0 12.1723 0.0150947 12.0964 0.0444229 12.0256C0.073751 11.9548 0.116738 11.8904 0.170929 11.8362L5.59165 6.41625L0.170929 0.99625C0.0614849 0.886806 -1.15318e-09 0.738368 0 0.58359C1.15318e-09 0.428812 0.0614849 0.280374 0.170929 0.17093C0.280374 0.0614852 0.428812 1.15318e-09 0.58359 0C0.738368 -1.15318e-09 0.886806 0.0614852 0.996251 0.17093L6.82891 6.00359C6.88314 6.05776 6.92616 6.12208 6.95551 6.19289C6.98486 6.2637 6.99997 6.3396 6.99997 6.41625C6.99997 6.4929 6.98486 6.5688 6.95551 6.6396C6.92616 6.71041 6.88314 6.77474 6.82891 6.82891Z" fill="var(--fill-0, #EE1500)"/>
</svg>
