<svg width="134" height="40" viewBox="0 0 134 40" fill="none" xmlns="http://www.w3.org/2000/svg">
<g clip-path="url(#clip0_2468_2191)">
<g filter="url(#filter0_iii_2468_2191)">
<mask id="mask0_2468_2191" style="mask-type:luminance" maskUnits="userSpaceOnUse" x="0" y="0" width="40" height="40">
<path d="M29.8868 0H9.96225C4.46025 0 0 4.46025 0 9.96225V29.8868C0 35.3888 4.46025 39.849 9.96225 39.849H29.8868C35.3888 39.849 39.849 35.3888 39.849 29.8868V9.96225C39.849 4.46025 35.3888 0 29.8868 0Z" fill="white"/>
</mask>
<g mask="url(#mask0_2468_2191)">
<path d="M29.8868 0H9.96225C4.46025 0 0 4.46025 0 9.96225V29.8868C0 35.3888 4.46025 39.849 9.96225 39.849H29.8868C35.3888 39.849 39.849 35.3888 39.849 29.8868V9.96225C39.849 4.46025 35.3888 0 29.8868 0Z" fill="white"/>
<path d="M39.849 0H0V39.849H39.849V0Z" fill="white"/>
<g filter="url(#filter1_d_2468_2191)">
<path fill-rule="evenodd" clip-rule="evenodd" d="M4.98111 19.9245C14.4794 19.9245 19.9245 14.4794 19.9245 4.98112C19.9245 14.4794 25.3696 19.9245 34.8679 19.9245C25.3696 19.9245 19.9245 25.3696 19.9245 34.8679C19.9245 25.3696 14.4794 19.9245 4.98111 19.9245Z" fill="black"/>
</g>
</g>
<path d="M29.887 0.830315H9.96248C4.91898 0.830315 0.830414 4.91888 0.830414 9.96238V29.8869C0.830414 34.9304 4.91898 39.0189 9.96248 39.0189H29.887C34.9305 39.0189 39.019 34.9304 39.019 29.8869V9.96238C39.019 4.91888 34.9305 0.830315 29.887 0.830315Z" stroke="white" stroke-width="1.99245"/>
</g>
</g>
<path d="M50.1853 28.9245V11.5358H52.8088V19.8396H53.0211L60.3145 11.5358H63.6173L56.6041 19.3641L63.6428 28.9245H60.4843L54.8636 21.1556L52.8088 23.516V28.9245H50.1853ZM66.676 28.9245V15.883H69.2147V28.9245H66.676ZM67.9581 13.8708C67.5166 13.8708 67.1374 13.7236 66.8204 13.4292C66.5091 13.1292 66.3534 12.7726 66.3534 12.3594C66.3534 11.9406 66.5091 11.584 66.8204 11.2896C67.1374 10.9896 67.5166 10.8396 67.9581 10.8396C68.3996 10.8396 68.776 10.9896 69.0874 11.2896C69.4043 11.584 69.5628 11.9406 69.5628 12.3594C69.5628 12.7726 69.4043 13.1292 69.0874 13.4292C68.776 13.7236 68.3996 13.8708 67.9581 13.8708ZM75.1687 21.1811V28.9245H72.63V15.883H75.0668V18.0057H75.2282C75.5282 17.3151 75.998 16.7604 76.6376 16.3415C77.2829 15.9226 78.0951 15.7132 79.0744 15.7132C79.9631 15.7132 80.7414 15.9 81.4093 16.2736C82.0772 16.6415 82.5951 17.1906 82.963 17.9207C83.331 18.6509 83.5149 19.5538 83.5149 20.6292V28.9245H80.9763V20.9349C80.9763 19.9896 80.73 19.2509 80.2376 18.7189C79.7451 18.1811 79.0687 17.9123 78.2083 17.9123C77.6197 17.9123 77.0961 18.0396 76.6376 18.2943C76.1848 18.549 75.8253 18.9226 75.5593 19.4151C75.2989 19.9019 75.1687 20.4906 75.1687 21.1811ZM92.413 29.1877C91.1904 29.1877 90.1234 28.9075 89.2121 28.3471C88.3008 27.7868 87.5932 27.0028 87.0895 25.9953C86.5857 24.9877 86.3338 23.8104 86.3338 22.4632C86.3338 21.1104 86.5857 19.9273 87.0895 18.9141C87.5932 17.9009 88.3008 17.1141 89.2121 16.5538C90.1234 15.9934 91.1904 15.7132 92.413 15.7132C93.6357 15.7132 94.7027 15.9934 95.614 16.5538C96.5253 17.1141 97.2328 17.9009 97.7366 18.9141C98.2404 19.9273 98.4923 21.1104 98.4923 22.4632C98.4923 23.8104 98.2404 24.9877 97.7366 25.9953C97.2328 27.0028 96.5253 27.7868 95.614 28.3471C94.7027 28.9075 93.6357 29.1877 92.413 29.1877ZM92.4215 27.0566C93.214 27.0566 93.8706 26.8472 94.3913 26.4283C94.9121 26.0094 95.297 25.4519 95.5461 24.7556C95.8008 24.0594 95.9281 23.2924 95.9281 22.4547C95.9281 21.6226 95.8008 20.8585 95.5461 20.1623C95.297 19.4604 94.9121 18.8972 94.3913 18.4726C93.8706 18.0481 93.214 17.8358 92.4215 17.8358C91.6234 17.8358 90.9612 18.0481 90.4347 18.4726C89.914 18.8972 89.5262 19.4604 89.2715 20.1623C89.0225 20.8585 88.8979 21.6226 88.8979 22.4547C88.8979 23.2924 89.0225 24.0594 89.2715 24.7556C89.5262 25.4519 89.914 26.0094 90.4347 26.4283C90.9612 26.8472 91.6234 27.0566 92.4215 27.0566ZM101.326 33.8151V15.883H103.805V17.9972H104.018C104.165 17.7255 104.377 17.4113 104.654 17.0547C104.932 16.6981 105.317 16.3868 105.809 16.1207C106.301 15.8491 106.952 15.7132 107.762 15.7132C108.815 15.7132 109.754 15.9792 110.581 16.5113C111.407 17.0434 112.055 17.8104 112.525 18.8123C113.001 19.8141 113.238 21.0198 113.238 22.4292C113.238 23.8387 113.003 25.0472 112.534 26.0547C112.064 27.0566 111.418 27.8292 110.598 28.3726C109.777 28.9104 108.84 29.1792 107.787 29.1792C106.995 29.1792 106.347 29.0462 105.843 28.7802C105.345 28.5141 104.954 28.2028 104.671 27.8462C104.388 27.4896 104.17 27.1726 104.018 26.8953H103.865V33.8151H101.326ZM103.814 22.4038C103.814 23.3207 103.947 24.1245 104.213 24.8151C104.479 25.5056 104.864 26.0462 105.368 26.4368C105.871 26.8217 106.488 27.0141 107.218 27.0141C107.977 27.0141 108.611 26.8132 109.12 26.4113C109.63 26.0038 110.015 25.4519 110.275 24.7556C110.541 24.0594 110.674 23.2755 110.674 22.4038C110.674 21.5434 110.544 20.7707 110.284 20.0858C110.029 19.4009 109.644 18.8604 109.129 18.4641C108.619 18.0679 107.983 17.8698 107.218 17.8698C106.483 17.8698 105.86 18.0594 105.351 18.4387C104.847 18.8179 104.465 19.3472 104.204 20.0264C103.944 20.7056 103.814 21.4981 103.814 22.4038ZM118.621 11.5358V28.9245H116.083V11.5358H118.621ZM127.657 29.1877C126.372 29.1877 125.266 28.9132 124.338 28.3641C123.415 27.8094 122.702 27.0311 122.198 26.0292C121.7 25.0217 121.451 23.8415 121.451 22.4887C121.451 21.1528 121.7 19.9755 122.198 18.9566C122.702 17.9377 123.404 17.1424 124.304 16.5707C125.209 15.9991 126.268 15.7132 127.479 15.7132C128.215 15.7132 128.928 15.8349 129.619 16.0783C130.309 16.3217 130.929 16.7038 131.478 17.2245C132.027 17.7453 132.46 18.4217 132.777 19.2538C133.094 20.0802 133.253 21.0849 133.253 22.2679V23.1679H122.886V21.266H130.765C130.765 20.5981 130.629 20.0066 130.357 19.4915C130.086 18.9707 129.704 18.5604 129.211 18.2604C128.724 17.9604 128.153 17.8104 127.496 17.8104C126.783 17.8104 126.16 17.9858 125.628 18.3368C125.102 18.6821 124.694 19.1349 124.405 19.6953C124.122 20.25 123.981 20.8528 123.981 21.5038V22.9896C123.981 23.8613 124.134 24.6028 124.439 25.2141C124.751 25.8255 125.184 26.2924 125.738 26.6151C126.293 26.9321 126.941 27.0905 127.683 27.0905C128.164 27.0905 128.603 27.0226 128.999 26.8868C129.395 26.7453 129.738 26.5358 130.026 26.2585C130.315 25.9811 130.536 25.6387 130.688 25.2311L133.091 25.6641C132.899 26.3717 132.554 26.9915 132.055 27.5236C131.563 28.05 130.943 28.4604 130.196 28.7547C129.455 29.0434 128.608 29.1877 127.657 29.1877Z" fill="white"/>
<defs>
<filter id="filter0_iii_2468_2191" x="-0.165817" y="-3.15458" width="40.1811" height="46.1584" filterUnits="userSpaceOnUse" color-interpolation-filters="sRGB">
<feFlood flood-opacity="0" result="BackgroundImageFix"/>
<feBlend mode="normal" in="SourceGraphic" in2="BackgroundImageFix" result="shape"/>
<feColorMatrix in="SourceAlpha" type="matrix" values="0 0 0 0 0 0 0 0 0 0 0 0 0 0 0 0 0 0 127 0" result="hardAlpha"/>
<feOffset dy="-2.98868"/>
<feGaussianBlur stdDeviation="1.49434"/>
<feComposite in2="hardAlpha" operator="arithmetic" k2="-1" k3="1"/>
<feColorMatrix type="matrix" values="0 0 0 0 0 0 0 0 0 0 0 0 0 0 0 0 0 0 0.1 0"/>
<feBlend mode="normal" in2="shape" result="effect1_innerShadow_2468_2191"/>
<feColorMatrix in="SourceAlpha" type="matrix" values="0 0 0 0 0 0 0 0 0 0 0 0 0 0 0 0 0 0 127 0" result="hardAlpha"/>
<feOffset dy="2.98868"/>
<feGaussianBlur stdDeviation="1.49434"/>
<feComposite in2="hardAlpha" operator="arithmetic" k2="-1" k3="1"/>
<feColorMatrix type="matrix" values="0 0 0 0 1 0 0 0 0 1 0 0 0 0 1 0 0 0 0.1 0"/>
<feBlend mode="normal" in2="effect1_innerShadow_2468_2191" result="effect2_innerShadow_2468_2191"/>
<feColorMatrix in="SourceAlpha" type="matrix" values="0 0 0 0 0 0 0 0 0 0 0 0 0 0 0 0 0 0 127 0" result="hardAlpha"/>
<feOffset/>
<feGaussianBlur stdDeviation="1.99245"/>
<feComposite in2="hardAlpha" operator="arithmetic" k2="-1" k3="1"/>
<feColorMatrix type="matrix" values="0 0 0 0 0 0 0 0 0 0 0 0 0 0 0 0 0 0 0.2 0"/>
<feBlend mode="normal" in2="effect2_innerShadow_2468_2191" result="effect3_innerShadow_2468_2191"/>
</filter>
<filter id="filter1_d_2468_2191" x="0.498096" y="2.73962" width="38.8528" height="38.8528" filterUnits="userSpaceOnUse" color-interpolation-filters="sRGB">
<feFlood flood-opacity="0" result="BackgroundImageFix"/>
<feColorMatrix in="SourceAlpha" type="matrix" values="0 0 0 0 0 0 0 0 0 0 0 0 0 0 0 0 0 0 127 0" result="hardAlpha"/>
<feOffset dy="2.24151"/>
<feGaussianBlur stdDeviation="2.24151"/>
<feComposite in2="hardAlpha" operator="out"/>
<feColorMatrix type="matrix" values="0 0 0 0 0.141176 0 0 0 0 0.141176 0 0 0 0 0.141176 0 0 0 0.1 0"/>
<feBlend mode="normal" in2="BackgroundImageFix" result="effect1_dropShadow_2468_2191"/>
<feBlend mode="normal" in="SourceGraphic" in2="effect1_dropShadow_2468_2191" result="shape"/>
</filter>
<clipPath id="clip0_2468_2191">
<rect width="39.849" height="39.849" fill="white"/>
</clipPath>
</defs>
</svg>
