<svg preserveAspectRatio="none" width="100%" height="100%" overflow="visible" style="display: block;" viewBox="0 0 50 51" fill="none" xmlns="http://www.w3.org/2000/svg">
<g id="Frame 159" filter="url(#filter0_d_0_51)">
<rect x="6" y="2" width="38" height="39" rx="12" fill="var(--fill-0, white)" shape-rendering="crispEdges"/>
<rect x="6.5" y="2.5" width="37" height="38" rx="11.5" stroke="var(--stroke-0, #EEEEF2)" shape-rendering="crispEdges"/>
<path id="Vector" d="M29.2805 22.0306L21.7805 29.5306C21.7109 29.6003 21.6281 29.6556 21.5371 29.6933C21.446 29.731 21.3485 29.7504 21.2499 29.7504C21.1514 29.7504 21.0538 29.731 20.9627 29.6933C20.8717 29.6556 20.789 29.6003 20.7193 29.5306C20.6496 29.4609 20.5943 29.3782 20.5566 29.2872C20.5189 29.1961 20.4995 29.0985 20.4995 29C20.4995 28.9015 20.5189 28.8039 20.5566 28.7128C20.5943 28.6218 20.6496 28.5391 20.7193 28.4694L27.6896 21.5L20.7193 14.5306C20.5786 14.3899 20.4995 14.199 20.4995 14C20.4995 13.801 20.5786 13.6101 20.7193 13.4694C20.86 13.3286 21.0509 13.2496 21.2499 13.2496C21.4489 13.2496 21.6398 13.3286 21.7805 13.4694L29.2805 20.9694C29.3503 21.039 29.4056 21.1217 29.4433 21.2128C29.4811 21.3038 29.5005 21.4014 29.5005 21.5C29.5005 21.5986 29.4811 21.6962 29.4433 21.7872C29.4056 21.8783 29.3503 21.961 29.2805 22.0306Z" fill="var(--fill-0, black)"/>
</g>
<defs>
<filter id="filter0_d_0_51" x="0.2" y="0.2" width="49.6" height="50.6" filterUnits="userSpaceOnUse" color-interpolation-filters="sRGB">
<feFlood flood-opacity="0" result="BackgroundImageFix"/>
<feColorMatrix in="SourceAlpha" type="matrix" values="0 0 0 0 0 0 0 0 0 0 0 0 0 0 0 0 0 0 127 0" result="hardAlpha"/>
<feOffset dy="4"/>
<feGaussianBlur stdDeviation="2.9"/>
<feComposite in2="hardAlpha" operator="out"/>
<feColorMatrix type="matrix" values="0 0 0 0 0 0 0 0 0 0 0 0 0 0 0 0 0 0 0.11 0"/>
<feBlend mode="normal" in2="BackgroundImageFix" result="effect1_dropShadow_0_51"/>
<feBlend mode="normal" in="SourceGraphic" in2="effect1_dropShadow_0_51" result="shape"/>
</filter>
</defs>
</svg>
