<svg width="20" height="10" viewBox="0 0 20 10" fill="none" xmlns="http://www.w3.org/2000/svg">
<path d="M19.1513 7.44704C19.0657 7.49589 18.9712 7.52736 18.8734 7.53966C18.7755 7.55197 18.6762 7.54485 18.5811 7.51873C18.486 7.4926 18.397 7.44799 18.3192 7.38742C18.2414 7.32686 18.1763 7.25155 18.1276 7.16579L16.3463 4.05329C15.3107 4.75349 14.1684 5.28097 12.9638 5.61516L13.5141 8.91704C13.5304 9.01424 13.5273 9.11369 13.5051 9.20971C13.4829 9.30572 13.4419 9.39641 13.3846 9.4766C13.3273 9.55679 13.2548 9.6249 13.1712 9.67704C13.0876 9.72918 12.9945 9.76433 12.8973 9.78048C12.8573 9.78702 12.8168 9.79047 12.7763 9.79079C12.5989 9.79052 12.4273 9.72736 12.292 9.61253C12.1568 9.4977 12.0666 9.33863 12.0376 9.1636L11.4966 5.92173C10.3559 6.08047 9.19864 6.08047 8.05788 5.92173L7.51694 9.1636C7.48784 9.33895 7.3974 9.49827 7.26175 9.61314C7.12611 9.72801 6.95407 9.79097 6.77632 9.79079C6.73486 9.79061 6.69348 9.78717 6.65257 9.78048C6.55535 9.76433 6.46227 9.72918 6.37864 9.67704C6.29501 9.6249 6.22248 9.55679 6.16519 9.4766C6.1079 9.39641 6.06698 9.30572 6.04476 9.20971C6.02254 9.11369 6.01946 9.01424 6.03569 8.91704L6.58882 5.61516C5.38472 5.27991 4.24301 4.75148 3.20819 4.05048L1.43257 7.16579C1.33311 7.33909 1.16889 7.46579 0.976017 7.518C0.783148 7.57022 0.577434 7.54368 0.404132 7.44423C0.23083 7.34477 0.104134 7.18054 0.0519169 6.98767C-0.000300273 6.79481 0.0262383 6.58909 0.125694 6.41579L2.00069 3.13454C1.3421 2.56555 0.736492 1.93798 0.19132 1.25954C0.123331 1.18363 0.0715255 1.09466 0.0390654 0.998059C0.00660524 0.901461 -0.00582865 0.79926 0.00252294 0.697697C0.0108745 0.596133 0.0398364 0.497338 0.0876403 0.407339C0.135444 0.317341 0.201088 0.238029 0.280563 0.174244C0.360039 0.110459 0.45168 0.0635402 0.549892 0.0363505C0.648104 0.00916082 0.750827 0.00227081 0.85179 0.0161016C0.952754 0.0299324 1.04984 0.0641937 1.13712 0.116794C1.2244 0.169394 1.30005 0.23923 1.35944 0.322038C2.91569 2.24766 5.63819 4.54079 9.77632 4.54079C13.9144 4.54079 16.6369 2.24485 18.1932 0.322038C18.2519 0.237535 18.3274 0.166018 18.4149 0.111937C18.5025 0.0578555 18.6002 0.0223671 18.7021 0.00767947C18.8039 -0.00700813 18.9077 -0.000580827 19.0069 0.0265615C19.1062 0.0537038 19.1988 0.100981 19.279 0.165451C19.3592 0.22992 19.4253 0.310204 19.4731 0.401307C19.521 0.49241 19.5495 0.592382 19.5571 0.695005C19.5646 0.797628 19.551 0.900706 19.517 0.997827C19.483 1.09495 19.4294 1.18403 19.3594 1.25954C18.8143 1.93798 18.2087 2.56555 17.5501 3.13454L19.4251 6.41579C19.4754 6.50132 19.5083 6.59599 19.5217 6.69432C19.5352 6.79264 19.529 6.89267 19.5036 6.98859C19.4781 7.08451 19.4339 7.17442 19.3734 7.25312C19.3129 7.33182 19.2374 7.39773 19.1513 7.44704Z" fill="black"/>
</svg>
